# xmcd
#
# Track frame offsets: 
#        150
#        14282
#        29265
#        42042
#        58450
#        75352
#        92205
#        105012
#        120975
#        135120
#        147217
#        162745
#
# Disc length: 2383 seconds
#
# Revision: 2
# Processed by: cddbd v1.5.1PL0 Copyright (c) Steve Scherf et al.
# Submitted via: ExactAudioCopy v0.95a5
#
DISCID=8b094d0c
DTITLE=The Derailers - Jackpot
DYEAR=1996
DGENRE=Rock
TTITLE0=My Heart's Ready
TTITLE1=This Big City
TTITLE2=I'm Your Man
TTITLE3=Where Ya Been
TTITLE4=Lies, Lies, Lies
TTITLE5=Vision To Dream On
TTITLE6=Jackpot
TTITLE7=Swan Song
TTITLE8=She Left Me Cold
TTITLE9=100% Pure Fool
TTITLE10=Tarnished Love
TTITLE11=Desperate Ways
EXTD=
EXTT0=
EXTT1=
EXTT2=
EXTT3=
EXTT4=
EXTT5=
EXTT6=
EXTT7=
EXTT8=
EXTT9=
EXTT10=
EXTT11=
PLAYORDER=
